<svg id="Layer_1" data-name="Layer 1" xmlns="http://www.w3.org/2000/svg" viewBox="0 0 59.7 36.92"><defs><style>.cls-1{fill:#f6851f;}</style></defs><title>logo_mobile</title><path class="cls-1" d="M31.19,10.27a1.49,1.49,0,0,0,0-.21,1.38,1.38,0,1,0-2.75,0,1.49,1.49,0,0,0,0,.21C18.59,10.94,10.6,18.88,9.38,29a1.49,1.49,0,0,0,1.48,1.67h38A1.49,1.49,0,0,0,50.29,29C49.06,18.88,41.08,10.94,31.19,10.27ZM16.21,29l-3.42,0a1.11,1.11,0,0,1-1.07-1.33c1.83-9.1,9-16.09,17.77-16.09-5.92,2-11,8-12.58,16.85A.71.71,0,0,1,16.21,29Z"/><path class="cls-1" d="M29.81,6.81a1.44,1.44,0,0,1-1.44-1.43V1.51a1.44,1.44,0,0,1,2.87,0V5.38A1.43,1.43,0,0,1,29.81,6.81Z"/><path class="cls-1" d="M1.61,32a1.44,1.44,0,0,1,0-2.87H5.86a1.44,1.44,0,1,1,0,2.87Z"/><path class="cls-1" d="M54,32a1.44,1.44,0,0,1,0-2.87h4.11a1.44,1.44,0,0,1,0,2.87Z"/><path class="cls-1" d="M46.77,15a1.44,1.44,0,0,1-1-2.45l3-3.05a1.46,1.46,0,0,1,1-.42,1.44,1.44,0,0,1,1,2.45l-3,3A1.42,1.42,0,0,1,46.77,15Z"/><path class="cls-1" d="M12.76,15a1.42,1.42,0,0,1-1-.45l-2.88-3a1.43,1.43,0,0,1,1-2.42,1.42,1.42,0,0,1,1,.45l2.88,3a1.44,1.44,0,0,1-.05,2A1.45,1.45,0,0,1,12.76,15Z"/><path class="cls-1" d="M39,9.6a1.52,1.52,0,0,1-.59-.12,1.44,1.44,0,0,1-.75-.8,1.4,1.4,0,0,1,0-1.1l.92-2a1.44,1.44,0,0,1,2.62,1.18l-.92,2A1.44,1.44,0,0,1,39,9.6Z"/><path class="cls-1" d="M52.18,22.74A1.43,1.43,0,0,1,51.55,20L53.68,19a1.39,1.39,0,0,1,.63-.15,1.43,1.43,0,0,1,.63,2.72l-2.13,1.05A1.39,1.39,0,0,1,52.18,22.74Z"/><path class="cls-1" d="M20.32,9.77a1.45,1.45,0,0,1-1.37-1l-.72-2.21a1.43,1.43,0,0,1,.91-1.81,1.33,1.33,0,0,1,.45-.08,1.44,1.44,0,0,1,1.36,1l.73,2.21a1.42,1.42,0,0,1-.92,1.81A1.32,1.32,0,0,1,20.32,9.77Z"/><path class="cls-1" d="M7.51,22.58a1.5,1.5,0,0,1-.52-.1l-2.28-.89a1.44,1.44,0,0,1,.52-2.77,1.5,1.5,0,0,1,.52.1L8,19.81a1.42,1.42,0,0,1,.79.75,1.45,1.45,0,0,1,0,1.1A1.42,1.42,0,0,1,7.51,22.58Z"/><rect class="cls-1" x="9.24" y="32.71" width="41.79" height="4.06" rx="1.04" ry="1.04"/></svg>