<svg id="Layer_1" data-name="Layer 1" xmlns="http://www.w3.org/2000/svg" viewBox="0 0 423.48 330.35"><defs><style>.cls-1{fill:#ff8500;}.cls-2{fill:#91d300;}</style></defs><title>SelfNourish_Logo</title><path class="cls-1" d="M210.19,187.15a42.33,42.33,0,0,1-21.29-5.34,37.57,37.57,0,0,1-14.66-15.26A50.78,50.78,0,0,1,168.63,144h0l0-.14a3.33,3.33,0,0,1,.47-2.89,2.46,2.46,0,0,1,1.91-.85h68.32c2.52,0,3.65,3.28,3.65,5.61,0,1.34-.62,6.32-3.65,6.32H182.75a34.73,34.73,0,0,0,2.45,7.29,25.53,25.53,0,0,0,9.56,10.92,28.39,28.39,0,0,0,15.43,4,22.91,22.91,0,0,0,11.53-3.11,24.5,24.5,0,0,0,8.56-7.9l.12-.18,0,0a6.59,6.59,0,0,1,5.33-2.78,5.83,5.83,0,0,1,4.41,2,6.51,6.51,0,0,1,.32,8.2,43,43,0,0,1-13.07,11.87A33.34,33.34,0,0,1,210.19,187.15Z"/><path class="cls-1" d="M207.89,100.62a2.33,2.33,0,0,0,0-.38,2.48,2.48,0,0,0-5,0,2.33,2.33,0,0,0,0,.38c-18.74,1.27-33.69,17.06-34.59,36.69h74C241.58,117.68,226.63,101.89,207.89,100.62ZM182,134.28l-9.55-.07c2.44-17.5,15.87-31.3,32.35-31.3C194,106.53,184.64,117.75,182,134.28Z"/><path class="cls-1" d="M205.38,91a2.72,2.72,0,0,1-2.72-2.72V81a2.72,2.72,0,0,1,5.43,0v7.31A2.72,2.72,0,0,1,205.38,91Z"/><path class="cls-1" d="M205.38,90.16a1.87,1.87,0,0,1-1.87-1.87V81a1.87,1.87,0,1,1,3.73,0v7.31A1.87,1.87,0,0,1,205.38,90.16Z"/><path class="cls-1" d="M152,138.6a2.72,2.72,0,1,1,0-5.43h8a2.72,2.72,0,1,1,0,5.43Z"/><path class="cls-1" d="M160,137.75h-8a1.87,1.87,0,1,1,0-3.73h8a1.87,1.87,0,1,1,0,3.73Z"/><path class="cls-1" d="M251.15,138.6a2.72,2.72,0,1,1,0-5.43h7.77a2.72,2.72,0,1,1,0,5.43Z"/><path class="cls-1" d="M258.92,137.75h-7.77a1.87,1.87,0,1,1,0-3.73h7.77a1.87,1.87,0,1,1,0,3.73Z"/><path class="cls-1" d="M237.48,106.57a2.69,2.69,0,0,1-1.91-.79,2.73,2.73,0,0,1,0-3.84l5.78-5.78a2.72,2.72,0,0,1,3.84,3.84l-5.78,5.78A2.69,2.69,0,0,1,237.48,106.57Z"/><path class="cls-1" d="M237.48,105.72a1.86,1.86,0,0,1-1.31-3.18l5.77-5.78a1.87,1.87,0,0,1,2.64,2.64l-5.78,5.78A1.86,1.86,0,0,1,237.48,105.72Z"/><path class="cls-1" d="M173.1,106.55a2.71,2.71,0,0,1-2-.84L165.68,100a2.71,2.71,0,0,1,2-4.58,2.75,2.75,0,0,1,2,.84l5.45,5.76a2.71,2.71,0,0,1-2,4.58Z"/><path class="cls-1" d="M173.1,105.71a1.86,1.86,0,0,1-1.35-.59l-5.46-5.76A1.86,1.86,0,0,1,169,96.8l5.46,5.76a1.87,1.87,0,0,1-1.36,3.15Z"/><path class="cls-1" d="M222.85,96.29a2.83,2.83,0,0,1-1.11-.23,2.72,2.72,0,0,1-1.36-3.59l1.74-3.88a2.71,2.71,0,0,1,2.47-1.6,2.79,2.79,0,0,1,1.11.23,2.72,2.72,0,0,1,1.37,3.59l-1.74,3.88A2.73,2.73,0,0,1,222.85,96.29Z"/><path class="cls-1" d="M222.85,95.45a1.9,1.9,0,0,1-.76-.17,1.86,1.86,0,0,1-.94-2.46l1.74-3.88a1.87,1.87,0,0,1,2.47-.94,1.85,1.85,0,0,1,.93,2.46l-1.73,3.88A1.9,1.9,0,0,1,222.85,95.45Z"/><path class="cls-1" d="M247.73,121.17a2.71,2.71,0,0,1-1.2-5.15l4-2a2.77,2.77,0,0,1,1.2-.27,2.71,2.71,0,0,1,1.19,5.15l-4,2A2.57,2.57,0,0,1,247.73,121.17Z"/><path class="cls-1" d="M247.73,120.32a1.87,1.87,0,0,1-.83-3.54l4-2a1.86,1.86,0,1,1,1.65,3.34l-4,2A1.83,1.83,0,0,1,247.73,120.32Z"/><path class="cls-1" d="M187.41,96.61a2.71,2.71,0,0,1-2.58-1.87l-1.38-4.19a2.71,2.71,0,0,1,5.15-1.7L190,93a2.66,2.66,0,0,1-.15,2.07,2.73,2.73,0,0,1-1.57,1.36A2.8,2.8,0,0,1,187.41,96.61Z"/><path class="cls-1" d="M187.41,95.76a1.87,1.87,0,0,1-1.78-1.29l-1.38-4.19a1.87,1.87,0,0,1,3.55-1.16l1.38,4.19A1.86,1.86,0,0,1,188,95.66,1.69,1.69,0,0,1,187.41,95.76Z"/><path class="cls-1" d="M163.15,120.86a2.55,2.55,0,0,1-1-.19l-4.3-1.67a2.71,2.71,0,0,1-1.55-3.51,2.72,2.72,0,0,1,3.51-1.55l4.31,1.67a2.75,2.75,0,0,1,1.5,1.44,2.72,2.72,0,0,1-2.49,3.81Z"/><path class="cls-1" d="M163.15,120a1.77,1.77,0,0,1-.67-.13l-4.31-1.67a1.87,1.87,0,0,1,1.36-3.48l4.3,1.67a1.87,1.87,0,0,1-.68,3.61Z"/><path class="cls-2" d="M131.14,260.42A19.12,19.12,0,0,1,121,257.59a19.88,19.88,0,0,1-7.18-7.65,23.07,23.07,0,0,1,0-21.24,20,20,0,0,1,7.13-7.65,19.85,19.85,0,0,1,20.43,0,19.71,19.71,0,0,1,7.16,7.66A22.56,22.56,0,0,1,151,239.35,22.25,22.25,0,0,1,148.48,250a19.71,19.71,0,0,1-7.15,7.62A19.12,19.12,0,0,1,131.14,260.42Zm0-33.66a10.55,10.55,0,0,0-5.67,1.58,11.38,11.38,0,0,0-4.07,4.43,14,14,0,0,0-1.52,6.58,13.77,13.77,0,0,0,1.52,6.51,11.39,11.39,0,0,0,4.07,4.43,10.48,10.48,0,0,0,5.67,1.59,10.65,10.65,0,0,0,5.71-1.55,11,11,0,0,0,4-4.4,15.27,15.27,0,0,0,0-13.18,11.28,11.28,0,0,0-4-4.42A10.53,10.53,0,0,0,131.14,226.76Z"/><path class="cls-2" d="M197,219.56a4.28,4.28,0,0,0-3.11-1.35,4.23,4.23,0,0,0-3.24,1.45,4.43,4.43,0,0,0-1.11,3v21c0,2.77-.69,4.86-2,6.22a7.93,7.93,0,0,1-5.86,2,8.05,8.05,0,0,1-5.94-2c-1.34-1.36-2-3.45-2-6.22V236.4a4.36,4.36,0,0,0-1.25-3.06,4.3,4.3,0,0,0-6.33.1,4.44,4.44,0,0,0-1.12,3v7.18c0,5.38,1.54,9.6,4.59,12.55s7.07,4.4,12.07,4.4,9-1.48,12-4.41,4.55-7.16,4.55-12.54v-21A4.44,4.44,0,0,0,197,219.56Z"/><path class="cls-2" d="M97.66,235.08c0-5.37-1.57-9.58-4.6-12.51S86,218.19,81,218.21a18.67,18.67,0,0,0-8.14,1.72,4.42,4.42,0,0,0-4.17-3.11,4.27,4.27,0,0,0-3.22,1.45,4.42,4.42,0,0,0-1.11,3l.05,11.36h0v5.61h0v1.11a4.37,4.37,0,0,0,1.26,3.06,4.31,4.31,0,0,0,6.33-.13,4.43,4.43,0,0,0,1.11-3l0-4.09c0-2.76.66-4.86,2-6.22A8,8,0,0,1,81,226.91a7.93,7.93,0,0,1,5.88,2c1.34,1.35,2,3.43,2,6.2l.09,20.95a4.5,4.5,0,0,0,1.13,3,4.29,4.29,0,0,0,6.34.06A4.43,4.43,0,0,0,97.75,256Z"/><path class="cls-2" d="M230.77,218.11a15,15,0,0,0-9.76,3.63l-.08.07a4.39,4.39,0,0,0-1.06-2.17,4.31,4.31,0,0,0-6.32-.1,4.39,4.39,0,0,0-1.25,3.07v23.48a4.36,4.36,0,0,0,1.25,3.06,4.31,4.31,0,0,0,6.33-.09,4.46,4.46,0,0,0,1.12-3v-7.81a12.08,12.08,0,0,1,1.47-5.46,13.88,13.88,0,0,1,3.84-4.63,6.06,6.06,0,0,1,3.75-1.64,1.6,1.6,0,0,1,.56.1,5.61,5.61,0,0,0,2.12.54,4,4,0,0,0,3.21-1.54,4.56,4.56,0,0,0,1-2.93C237,221.64,236.51,218.11,230.77,218.11Z"/><path class="cls-2" d="M298.07,242.5a12.1,12.1,0,0,0-4.53-4.33,36.51,36.51,0,0,0-6.14-2.63,22.37,22.37,0,0,1-6.31-3,2.68,2.68,0,0,1-1.18-2.32,2.8,2.8,0,0,1,1.45-2.36,7.43,7.43,0,0,1,4.5-.9l2,.15h0l1.23.09a4.43,4.43,0,0,0,3.12-1,4.22,4.22,0,0,0,.38-6.28,4.49,4.49,0,0,0-2.85-1.3l-5.81-.44,0,.25a14.57,14.57,0,0,0-7.54,2.56,11.34,11.34,0,0,0-5,8.65,10.54,10.54,0,0,0,3.73,9.23,28.29,28.29,0,0,0,9.45,4.9,18.58,18.58,0,0,1,5.49,2.65,2.39,2.39,0,0,1,.9,2.38,2.7,2.7,0,0,1-1.62,2.36,8.36,8.36,0,0,1-4.82,1h0l-4.49-.34a4.4,4.4,0,0,0-3.12,1,4.18,4.18,0,0,0-1.6,3,3.88,3.88,0,0,0,1.49,3.54,5.7,5.7,0,0,0,2.84,1l1.9.14,2.06,0h0c.62.05,1.22.08,1.81.08a16.15,16.15,0,0,0,8.9-2.39,11.15,11.15,0,0,0,5.2-8.85A11.39,11.39,0,0,0,298.07,242.5Z"/><path class="cls-2" d="M343.18,226.78c-3-2.92-7.05-4.41-12.05-4.41a18.85,18.85,0,0,0-8,1.6V213a4.42,4.42,0,0,0-1.13-3,4.31,4.31,0,0,0-6.32-.1,4.4,4.4,0,0,0-1.25,3.07v43a4.51,4.51,0,0,0,.58,2.25,4.22,4.22,0,0,0,3.77,2.2,4.28,4.28,0,0,0,3.1-1.33,4.34,4.34,0,0,0,1.25-3.06V239.32c0-2.77.68-4.86,2-6.21a8,8,0,0,1,5.93-2,7.92,7.92,0,0,1,5.86,2c1.35,1.35,2,3.44,2,6.21v7.24a4.44,4.44,0,0,0,1.12,3,4.22,4.22,0,0,0,3.23,1.44,4.28,4.28,0,0,0,3.11-1.35,4.4,4.4,0,0,0,1.24-3.07v-7.24C347.72,234,346.19,229.73,343.18,226.78Z"/><path class="cls-2" d="M255.27,220.71a4.37,4.37,0,0,0-7.56,3v32.51a4.34,4.34,0,0,0,1.14,2.95,4.37,4.37,0,0,0,7.56-2.95V223.67A4.34,4.34,0,0,0,255.27,220.71Z"/><path class="cls-2" d="M252.06,216.69a4.41,4.41,0,0,1-3.18-1.26,3.67,3.67,0,0,1-1.11-2.61v-2.34a3.66,3.66,0,0,1,1.23-2.69,4.49,4.49,0,0,1,3.06-1.18,4.41,4.41,0,0,1,3.18,1.26,3.66,3.66,0,0,1,1.11,2.61v2.34a3.61,3.61,0,0,1-1.23,2.7A4.51,4.51,0,0,1,252.06,216.69Z"/><path class="cls-1" d="M102.15,187.14h.08a45.62,45.62,0,0,0,19.15-3.88,32.77,32.77,0,0,0,13.38-10.74,26.05,26.05,0,0,0,4.88-15.38c0-7.14-1.61-13-4.77-17.5a31.35,31.35,0,0,0-12.05-10.22,118.94,118.94,0,0,0-18-6.67c-8.12-2.56-14.41-5.39-18.7-8.41-3.92-2.75-5.83-6.63-5.84-11.86a13.59,13.59,0,0,1,6.12-11.81c4.3-3,17-4.18,17-4.18l11.83-.16c7.64,0,7.22-13.16-.85-13.16,0,0-4.24,0-11,.06l-.06-.06c-7.11,0-13.5.92-19,3.44a31.54,31.54,0,0,0-13.08,10.6,26.8,26.8,0,0,0-4.72,15.59c0,6.43,1.54,11.86,4.54,16.12a32.4,32.4,0,0,0,11.54,10,92.54,92.54,0,0,0,16.81,6.55A123.36,123.36,0,0,1,114,141.05a25,25,0,0,1,8.68,6.53,14.4,14.4,0,0,1,3.12,9.58c0,4.93-2.07,8.82-6.36,11.89-4.45,3.2-10.18,4.82-17,4.83h-.06a89.39,89.39,0,0,1-18.52-1c-9.34-1.28-11.46,12.31-2.54,13.58C94.3,188.36,95.25,187.35,102.15,187.14Z"/><path class="cls-1" d="M285.85,187.15a6.58,6.58,0,0,1-6.71-6.71v-104a6.71,6.71,0,1,1,13.42,0v104a6.58,6.58,0,0,1-6.71,6.71Z"/><path class="cls-1" d="M329.49,187.15a6.58,6.58,0,0,1-6.71-6.71V119.1h-9a6.16,6.16,0,0,1-4.61-2,6.39,6.39,0,0,1-1.8-4.43,6.23,6.23,0,0,1,1.9-4.69,6.36,6.36,0,0,1,4.51-1.72h9V92.66c0-7,2.1-12.53,6.24-16.45s9.62-5.85,16.37-5.85a26,26,0,0,1,8.66,1.42c4.42,1.57,5.08,4.56,5.08,6.2a6.31,6.31,0,0,1-1.84,4.56A6,6,0,0,1,353,84.39a11.32,11.32,0,0,1-4-.87,19.45,19.45,0,0,0-4.69-.81,7.24,7.24,0,0,0-5.94,2.44c-1.45,1.74-2.18,4.27-2.18,7.51v13.63h15a6.36,6.36,0,0,1,4.43,1.8,6.38,6.38,0,0,1,0,9.21,6.32,6.32,0,0,1-4.44,1.8h-15v61.34a6.59,6.59,0,0,1-6.71,6.71Z"/></svg>