<svg xmlns="http://www.w3.org/2000/svg" viewBox="0 0 131.17 131.17"><defs><style>.cls-1{fill:#b3e036;}.cls-1,.cls-2,.cls-3,.cls-6,.cls-7,.cls-8{stroke:#515151;stroke-width:1.5px;}.cls-1,.cls-2,.cls-3,.cls-6,.cls-8{stroke-linecap:round;}.cls-1,.cls-2,.cls-3,.cls-7{stroke-linejoin:round;}.cls-2{fill:#f5841f;}.cls-3,.cls-8{fill:#ffab50;}.cls-4,.cls-7{fill:#fff;}.cls-5{fill:#515151;}.cls-6{fill:none;}.cls-6,.cls-8{stroke-miterlimit:10;}</style></defs><title>Asset 17</title><g id="Layer_2" data-name="Layer 2"><g id="Layer_1-2" data-name="Layer 1"><path class="cls-1" d="M65.59,69.61,12.93,100a60.79,60.79,0,0,0,105.31,0Z"/><path class="cls-2" d="M69.61.75V61.56L122.27,92A60.8,60.8,0,0,0,69.61.75Z"/><path class="cls-3" d="M.75,61.56A60.54,60.54,0,0,0,8.9,92l52.66-30.4V.75A60.82,60.82,0,0,0,.75,61.56Z"/><path class="cls-4" d="M22.42,64.84A3.89,3.89,0,0,1,18.54,61V42.05a.29.29,0,0,0-.12-.23c-1.85-1.4-4.06-3.75-4.06-7,0-6.07,8.62-11.2,18.83-11.2S52,28.75,52,34.82c0,3.24-2.21,5.59-4.07,7a.28.28,0,0,0-.11.23V61A3.9,3.9,0,0,1,44,64.84Z"/><path class="cls-5" d="M33.19,24.37c9.8,0,18.08,4.79,18.08,10.45,0,2.94-2.05,5.1-3.77,6.4a1,1,0,0,0-.41.83V61A3.15,3.15,0,0,1,44,64.09H22.42A3.14,3.14,0,0,1,19.29,61V42.05a1,1,0,0,0-.42-.83c-1.71-1.3-3.76-3.46-3.76-6.4,0-5.66,8.28-10.45,18.08-10.45m0-1.5c-10.8,0-19.58,5.36-19.58,12,0,2.75,1.44,5.33,4.18,7.46V61a4.64,4.64,0,0,0,4.63,4.64H44A4.64,4.64,0,0,0,48.59,61V42.28c2.73-2.13,4.18-4.71,4.18-7.46,0-6.59-8.79-11.95-19.58-11.95Z"/><line class="cls-6" x1="30.52" y1="41.46" x2="25.65" y2="46.33"/><line class="cls-6" x1="39.18" y1="41.57" x2="26.24" y2="54.52"/><line class="cls-6" x1="40.72" y1="49.03" x2="35.85" y2="53.9"/><path class="cls-4" d="M101.15,65.62a11.87,11.87,0,0,1-3.36-.49A5.89,5.89,0,0,0,96,64.86a5.83,5.83,0,0,0-1.76.27,12,12,0,0,1-3.37.49c-1.92,0-4-1.08-6-3.13-4-4-7-10.68-7-15.58,0-7.41,4.53-12,8.73-13a9.24,9.24,0,0,1,2.3-.27,16,16,0,0,1,4,.56,12.69,12.69,0,0,0,5.29.22c.36-.06.71-.13,1.06-.22a15.9,15.9,0,0,1,4-.56,9.24,9.24,0,0,1,2.3.27c4.21,1.09,8.73,5.64,8.73,13,0,5-3.17,11.94-7.23,15.84C105,64.63,103,65.62,101.15,65.62Z"/><path class="cls-5" d="M103.15,34.34a8.18,8.18,0,0,1,2.11.25c4,1,8.17,5.28,8.17,12.32,0,4.87-3.17,11.61-7,15.29-1.7,1.64-3.53,2.67-5.28,2.67A11.23,11.23,0,0,1,98,64.41a6.72,6.72,0,0,0-4,0,11.36,11.36,0,0,1-3.15.46c-1.83,0-3.75-1.13-5.52-2.91-3.72-3.72-6.76-10.28-6.76-15.05,0-7,4.21-11.3,8.17-12.32a8.24,8.24,0,0,1,2.11-.25,15.73,15.73,0,0,1,3.77.53,13.37,13.37,0,0,0,5.61.24,11.19,11.19,0,0,0,1.12-.24,15.58,15.58,0,0,1,3.76-.53m0-1.5h0a16.47,16.47,0,0,0-4.14.58c-.33.09-.66.16-1,.22a12.17,12.17,0,0,1-2,.16,11.54,11.54,0,0,1-3-.38,16.54,16.54,0,0,0-4.15-.58,10.16,10.16,0,0,0-2.48.29c-6.39,1.66-9.3,8.3-9.3,13.78,0,5.08,3.1,12,7.2,16.11,2.18,2.19,4.46,3.35,6.58,3.35a12.36,12.36,0,0,0,3.58-.53A5.49,5.49,0,0,1,96,65.61a5.39,5.39,0,0,1,1.55.23,12.36,12.36,0,0,0,3.58.53c2,0,4.22-1.07,6.32-3.08,4.19-4,7.46-11.22,7.46-16.38,0-5.48-2.9-12.12-9.29-13.78a10.25,10.25,0,0,0-2.49-.29Z"/><path class="cls-7" d="M112.71,24s-.82,5.72-5.14,7.39c-4.13,1.59-7.81-2.71-9.32-2.37a.44.44,0,0,0-.19.07h0c0-.16,1.7-5.09,6-5.41S110.69,25.27,112.71,24Z"/><path class="cls-8" d="M92.42,28.69a15.83,15.83,0,0,1,1.68,2.53,25.81,25.81,0,0,1,1.45,7.27"/><path class="cls-8" d="M97.86,29.31A14.68,14.68,0,0,0,95.94,31a4.31,4.31,0,0,0-1.15,2.32"/><path class="cls-8" d="M87.91,37.36s-2.54.18-4.7,3.51a8.07,8.07,0,0,0-.89,1.92"/><path class="cls-3" d="M82,47.43l-.15-1.36A8.12,8.12,0,0,0,82,47.43Z"/><path class="cls-4" d="M60.21,117.29a26.74,26.74,0,0,1-17.43-6.49,27.79,27.79,0,0,1-5.72-6.51,2.06,2.06,0,0,1,0-2.08,27.87,27.87,0,0,1,5.73-6.54,26.8,26.8,0,0,1,17.43-6.48c7.6,0,15.77,3.08,24.32,9.16l6.79-3.92a2.07,2.07,0,0,1,1-.28,2.13,2.13,0,0,1,1,.27,2.06,2.06,0,0,1,1,1.79v14.06a2,2,0,0,1-1,1.78,2.1,2.1,0,0,1-1,.28,2.07,2.07,0,0,1-1-.28l-6.79-3.92c-8.55,6.08-16.72,9.16-24.29,9.16Z"/><path class="cls-5" d="M60.21,89.94h0c6.69,0,14.78,2.47,24.25,9.3l7.21-4.16a1.31,1.31,0,0,1,.66-.18,1.28,1.28,0,0,1,.65.18,1.3,1.3,0,0,1,.65,1.13v14.06A1.3,1.3,0,0,1,93,111.4a1.28,1.28,0,0,1-.65.18,1.31,1.31,0,0,1-.66-.18l-7.21-4.16c-9.47,6.83-17.56,9.3-24.25,9.3h0a25.89,25.89,0,0,1-16.94-6.31,27.08,27.08,0,0,1-5.57-6.33,1.3,1.3,0,0,1,0-1.32,27.08,27.08,0,0,1,5.57-6.33,25.89,25.89,0,0,1,16.94-6.31m0-1.5h0A27.47,27.47,0,0,0,42.3,95.1a28.68,28.68,0,0,0-5.88,6.7,2.85,2.85,0,0,0,0,2.85,28.76,28.76,0,0,0,5.9,6.73A27.51,27.51,0,0,0,60.21,118c7.64,0,15.82-3,24.36-9l6.37,3.68a2.81,2.81,0,0,0,1.41.38,2.81,2.81,0,0,0,2.8-2.81V96.21a2.81,2.81,0,0,0-2.8-2.81,2.84,2.84,0,0,0-1.4.37l-6.38,3.69c-8.53-6-16.72-9-24.34-9Z"/><circle class="cls-5" cx="50.97" cy="100.41" r="2.35"/><path class="cls-6" d="M57.91,95.7a10.24,10.24,0,0,1,2.39,7.06,12.78,12.78,0,0,1-2.39,7.76"/></g></g></svg>