<svg xmlns="http://www.w3.org/2000/svg" viewBox="0 0 159.39 117.99"><defs><style>.cls-1,.cls-5{fill:#fff;}.cls-2{fill:#515151;}.cls-3{fill:#f5841f;}.cls-4{fill:#ffab50;}.cls-5,.cls-6{stroke:#515151;stroke-miterlimit:10;stroke-width:1.5px;}.cls-6{fill:#b3e036;}</style></defs><title>Asset 18</title><g id="Layer_2" data-name="Layer 2"><g id="Layer_1-2" data-name="Layer 1"><path class="cls-1" d="M156.43,115a2.35,2.35,0,0,1-2.21-2.47V63.43l-.69,0a9.88,9.88,0,0,1-6.85-3c-3.88-4.15-3.88-11.79-3.41-23.87A59,59,0,0,1,154.79,3.83,2.11,2.11,0,0,1,156.43,3a2,2,0,0,1,.76.15,2.48,2.48,0,0,1,1.45,2.31v107A2.35,2.35,0,0,1,156.43,115Z"/><path class="cls-2" d="M156.43,3.76a1.1,1.1,0,0,1,.47.1,1.72,1.72,0,0,1,1,1.61v107a1.48,1.48,0,1,1-2.92,0V62.74l-1.38-.11a9.19,9.19,0,0,1-6.36-2.76c-3.68-3.94-3.67-11.44-3.21-23.33A58.27,58.27,0,0,1,155.37,4.3a1.39,1.39,0,0,1,1.06-.54m0-1.5a2.85,2.85,0,0,0-2.22,1.1,60.17,60.17,0,0,0-11.69,33.12c-.47,12.28-.46,20.05,3.61,24.41a10.65,10.65,0,0,0,7.34,3.23v48.39a3,3,0,1,0,5.92,0V5.47a3.2,3.2,0,0,0-1.92-3,2.72,2.72,0,0,0-1-.21Z"/><path class="cls-3" d="M81.21,117.24A58.25,58.25,0,1,1,139.46,59,58.31,58.31,0,0,1,81.21,117.24Z"/><path class="cls-2" d="M81.21,1.5A57.5,57.5,0,1,1,23.72,59,57.57,57.57,0,0,1,81.21,1.5m0-1.5a59,59,0,1,0,59,59,59.06,59.06,0,0,0-59-59Z"/><path class="cls-4" d="M23.72,59c0,31.7,24.67,57.49,55,57.49l.28,0S34.29,111.4,31.37,59.24C31.37,18,79,1.57,79,1.57,48.79,1.73,23.72,27.38,23.72,59Z"/><path class="cls-5" d="M81.21,9.72A49.27,49.27,0,1,0,130.48,59,49.34,49.34,0,0,0,81.21,9.72Z"/><path class="cls-1" d="M11.38,115a2.34,2.34,0,0,1-2.11-2.51V46.56l-.42-.2C4,44,.75,35,.75,24.18V5.52A2.34,2.34,0,0,1,2.86,3,2.34,2.34,0,0,1,5,5.52V21.67H9.27V5.52A2.34,2.34,0,0,1,11.38,3,2.34,2.34,0,0,1,13.5,5.52V21.67h4.29V5.52A2.34,2.34,0,0,1,19.9,3,2.34,2.34,0,0,1,22,5.52V24.18C22,35,18.76,44,13.91,46.36l-.41.2v65.91A2.34,2.34,0,0,1,11.38,115Z"/><path class="cls-2" d="M19.9,3.76a1.63,1.63,0,0,1,1.37,1.76V24.18c0,10.41-3.16,19.25-7.69,21.51l-.83.41v66.37a1.62,1.62,0,0,1-1.37,1.75A1.61,1.61,0,0,1,10,112.47V46.1l-.83-.41C4.66,43.43,1.5,34.59,1.5,24.18V5.52A1.62,1.62,0,0,1,2.86,3.76,1.63,1.63,0,0,1,4.23,5.52v16.9H10V5.52a1.62,1.62,0,0,1,1.36-1.76,1.63,1.63,0,0,1,1.37,1.76v16.9h5.79V5.52A1.62,1.62,0,0,1,19.9,3.76m0-1.5A3.08,3.08,0,0,0,17,5.52v15.4H14.25V5.52a3.08,3.08,0,0,0-2.87-3.26A3.08,3.08,0,0,0,8.52,5.52v15.4H5.73V5.52A3.08,3.08,0,0,0,2.86,2.26,3.08,3.08,0,0,0,0,5.52V24.18C0,35.54,3.51,44.53,8.52,47v65.44a3.07,3.07,0,0,0,2.86,3.25,3.07,3.07,0,0,0,2.87-3.25V47c5-2.5,8.52-11.49,8.52-22.85V5.52A3.08,3.08,0,0,0,19.9,2.26Z"/><path class="cls-1" d="M83.3,81.54a23.91,23.91,0,0,1-7.18-1.12L65.78,77.17V46.7h.75c7.23,0,12.79-8.44,14.42-14.43l1.23-4.55A3,3,0,0,1,85,25.59h1.32a7.29,7.29,0,0,1,2.45.41,7,7,0,0,1,4.9,6.59v.22c0,4.33,0,7-2.34,13.89h17a5,5,0,0,1,5.15,4.92,4.88,4.88,0,0,1-2.41,4.17,4.8,4.8,0,0,1,0,8.33,4.87,4.87,0,0,1,2.41,4.17,5,5,0,0,1-5.15,4.92h-.7a4.76,4.76,0,0,1,1.45,3.41,5,5,0,0,1-5.15,4.92Z"/><path class="cls-2" d="M86.34,26.34a6.43,6.43,0,0,1,2.2.37,6.27,6.27,0,0,1,4.4,5.88c0,4.66,0,7.23-2.64,14.86h18a4.18,4.18,0,1,1,0,8.34,4.17,4.17,0,1,1,0,8.33,4.18,4.18,0,1,1,0,8.34h-4.4a4.17,4.17,0,1,1,0,8.33H83.3a23.05,23.05,0,0,1-7-1.08l-9.81-3.09V47.45c7.35,0,13.29-8.19,15.14-15l1.23-4.54A2.26,2.26,0,0,1,85,26.34h1.32m0-1.5H85a3.75,3.75,0,0,0-3.57,2.71l-1.23,4.52C77.62,41.64,70.65,46,66.53,46H65V77.72l1,.33,9.81,3.09a24.8,24.8,0,0,0,7.41,1.15h20.64a5.79,5.79,0,0,0,5.9-5.67,5.43,5.43,0,0,0-.72-2.71,5.77,5.77,0,0,0,5.13-5.62,5.57,5.57,0,0,0-1.91-4.17,5.5,5.5,0,0,0,0-8.33,5.58,5.58,0,0,0,1.91-4.17A5.8,5.8,0,0,0,108.34,46h-16a34.29,34.29,0,0,0,2-13.14v-.22A7.73,7.73,0,0,0,89,25.29a7.82,7.82,0,0,0-2.66-.45Z"/><path class="cls-6" d="M62.13,85H48.92a2.15,2.15,0,0,1-2.2-2.09V45.37a2.15,2.15,0,0,1,2.2-2.09H62.13a6.44,6.44,0,0,1,6.6,6.25V78.71A6.44,6.44,0,0,1,62.13,85Z"/><path class="cls-3" d="M88.54,15.92v4.17a2.21,2.21,0,0,1-4.41,0V15.92a2.21,2.21,0,0,1,4.41,0Z"/><path class="cls-3" d="M73.89,25.83l-3.12-2.95a2,2,0,0,1,0-2.94,2.29,2.29,0,0,1,3.12,0L77,22.88a2,2,0,0,1,0,2.95A2.29,2.29,0,0,1,73.89,25.83Z"/><path class="cls-3" d="M95.67,25.83a2,2,0,0,1,0-2.95l3.12-2.94a2.27,2.27,0,0,1,3.11,0,2,2,0,0,1,0,2.94l-3.11,2.95A2.31,2.31,0,0,1,95.67,25.83Z"/></g></g></svg>