<svg xmlns="http://www.w3.org/2000/svg" viewBox="0 0 140.18 140.18"><defs><style>.cls-1{fill:#ff8400;}.cls-2{fill:#515151;}.cls-3{fill:#ffab48;}.cls-4{fill:#b3e036;}</style></defs><title>Asset 10</title><g id="Layer_2" data-name="Layer 2"><g id="Layer_1-2" data-name="Layer 1"><path class="cls-1" d="M52,113.67A12.88,12.88,0,0,1,39.16,101a12.9,12.9,0,0,1,.24-25.8,13,13,0,0,1,5.17,1.09L76.33,44.56A12.89,12.89,0,1,1,101,39.15a12.9,12.9,0,0,1-.25,25.8h0a13,13,0,0,1-5.17-1.09L63.85,95.62a12.91,12.91,0,0,1-11.83,18Z"/><path class="cls-2" d="M88.18,27.26a12.14,12.14,0,0,1,12.1,12.65h.51A12.15,12.15,0,1,1,95.45,63L63,95.46a12,12,0,0,1-2.33,13.88,12.13,12.13,0,0,1-20.71-9.06H39.4a12.15,12.15,0,1,1,5.33-23.06l32.5-32.51a12,12,0,0,1,2.34-13.88,12.14,12.14,0,0,1,8.61-3.58m0-1.5A13.68,13.68,0,0,0,75.44,44.39l-31,31.06a13.64,13.64,0,1,0-6,26.31,13.64,13.64,0,1,0,26.3-6l31.05-31a13.78,13.78,0,0,0,5,1,13.65,13.65,0,0,0,1-27.27,13.72,13.72,0,0,0-4-8.68,13.52,13.52,0,0,0-9.61-4Z"/><path class="cls-3" d="M35.84,84.31A12,12,0,0,1,49.72,82l32.5-32.51A12.12,12.12,0,0,1,98.67,33.39a11.81,11.81,0,0,0-1.91-2.58,12.15,12.15,0,0,0-19.5,13.91L44.76,77.23a12.15,12.15,0,0,0-13.9,19.51,11.86,11.86,0,0,0,3,2.15A12.11,12.11,0,0,1,35.84,84.31Z"/><rect class="cls-4" x="37.23" y="55.55" width="4.15" height="14.51" rx="1.73" ry="1.73" transform="translate(-23.5 102.12) rotate(-90)"/><rect class="cls-4" x="48.99" y="41.84" width="4.15" height="14.51" rx="1.73" ry="1.73" transform="translate(-19.76 50.49) rotate(-45)"/><rect class="cls-4" x="62.69" y="30.09" width="4.15" height="14.51" rx="1.73" ry="1.73" transform="translate(129.54 74.69) rotate(180)"/><rect class="cls-4" x="102.9" y="66.84" width="4.15" height="14.51" rx="1.73" ry="1.73" transform="translate(179.08 -30.87) rotate(90)"/><rect class="cls-4" x="91.15" y="80.55" width="4.15" height="14.51" rx="1.73" ry="1.73" transform="translate(221.22 83.98) rotate(135)"/><rect class="cls-4" x="77.44" y="92.31" width="4.15" height="14.51" rx="1.73" ry="1.73"/><path class="cls-3" d="M70.09,3A67.09,67.09,0,1,1,3,70.09,67.09,67.09,0,0,1,70.09,3m0-3a70.09,70.09,0,1,0,70.09,70.09A70.17,70.17,0,0,0,70.09,0Z"/></g></g></svg>