<svg xmlns="http://www.w3.org/2000/svg" viewBox="0 0 140.18 140.18"><defs><style>.cls-1,.cls-11{fill:#ffab48;}.cls-12,.cls-2{fill:#ff8400;}.cls-11,.cls-2,.cls-3,.cls-5,.cls-6,.cls-7{stroke:#515151;stroke-width:1.5px;}.cls-2,.cls-3,.cls-7{stroke-miterlimit:10;}.cls-3{fill:#90d200;}.cls-4{fill:#b3e036;}.cls-5,.cls-9{fill:#fff;}.cls-11,.cls-5,.cls-6{stroke-linejoin:round;}.cls-10,.cls-6{fill:#d3d3d3;}.cls-7{fill:none;stroke-linecap:round;}.cls-8{font-size:19.34px;fill:#515151;font-family:Quicksand-Bold, Quicksand;font-weight:700;}</style></defs><title>Asset 14</title><g id="Layer_2" data-name="Layer 2"><g id="Layer_1-2" data-name="Layer 1"><path class="cls-1" d="M70.09,3A67.09,67.09,0,1,1,3,70.09,67.09,67.09,0,0,1,70.09,3m0-3a70.09,70.09,0,1,0,70.09,70.09A70.17,70.17,0,0,0,70.09,0Z"/><path class="cls-2" d="M55.53,24.24H86A16.08,16.08,0,0,1,102,40.32V78.77A28.24,28.24,0,0,1,73.79,107h-6.1A28.24,28.24,0,0,1,39.45,78.77V40.32A16.08,16.08,0,0,1,55.53,24.24Z"/><path class="cls-1" d="M48.9,78.47V40.86A15.91,15.91,0,0,1,65,25.13H56.43A15.2,15.2,0,0,0,40.35,40.86V78.47a27.4,27.4,0,0,0,28.23,27.62h6.11c.46,0,.79,0,1.22-.08C60.89,105.38,48.9,93.32,48.9,78.47Z"/><rect class="cls-3" x="54.71" y="88.44" width="31.94" height="22.11" rx="1.53" ry="1.53"/><path class="cls-4" d="M84.42,88.92H57a1.25,1.25,0,0,0-1.26,1.25v7.64h30V90.17A1.26,1.26,0,0,0,84.42,88.92Z"/><path class="cls-5" d="M64.53,88.44H76.82a0,0,0,0,1,0,0v30.51a1.53,1.53,0,0,1-1.53,1.53H66.06a1.53,1.53,0,0,1-1.53-1.53V88.44A0,0,0,0,1,64.53,88.44Z"/><rect class="cls-6" x="48.4" y="41.38" width="44.86" height="26.11" rx="2.42" ry="2.42"/><line class="cls-7" x1="58.36" y1="74.52" x2="93.26" y2="74.52"/><line class="cls-7" x1="48.4" y1="74.52" x2="53.77" y2="74.52"/><text class="cls-8" transform="translate(57.14 60.68)">5.8</text><path class="cls-9" d="M50.67,42.29h7.45V66.52H50.67a1.27,1.27,0,0,1-1.26-1.26V43.55A1.26,1.26,0,0,1,50.67,42.29Z"/><path class="cls-10" d="M67,89.34v30.23h8.35a.62.62,0,0,0,.62-.62V89.34Z"/><rect class="cls-11" x="64.58" y="94.62" width="12.26" height="8.72"/><rect class="cls-12" x="66.96" y="95.52" width="8.96" height="6.93"/></g></g></svg>