<svg xmlns="http://www.w3.org/2000/svg" viewBox="0 0 140.18 140.18"><defs><style>.cls-1,.cls-5{fill:#ffab48;}.cls-2,.cls-3{fill:#ff8400;}.cls-2,.cls-4,.cls-5{stroke:#515151;stroke-miterlimit:10;stroke-width:1.5px;}.cls-2{stroke-linecap:round;}.cls-4{fill:#b3e036;}</style></defs><title>Asset 11</title><g id="Layer_2" data-name="Layer 2"><g id="Layer_1-2" data-name="Layer 1"><path class="cls-1" d="M70.09,3A67.09,67.09,0,1,1,3,70.09,67.09,67.09,0,0,1,70.09,3m0-3a70.09,70.09,0,1,0,70.09,70.09A70.17,70.17,0,0,0,70.09,0Z"/><path class="cls-2" d="M54.65,68.69a31,31,0,0,1,4,.24,8.72,8.72,0,0,1,3,1"/><path class="cls-2" d="M76.65,71.4A43.09,43.09,0,0,1,81,73.11a11.73,11.73,0,0,1,3,2.11"/><path class="cls-2" d="M77.1,75.6s2.74,2.8,4.31,4.75a13.4,13.4,0,0,1,2.7,6.19"/><path class="cls-2" d="M54.15,75.68a30.17,30.17,0,0,0,4-.05,8.65,8.65,0,0,0,3.05-.87"/><path class="cls-2" d="M76.8,68.22a27.59,27.59,0,0,0,3.06.43,7.88,7.88,0,0,0,2.44-.22"/><ellipse class="cls-3" cx="91.5" cy="70.3" rx="4.78" ry="3.72" transform="translate(-23.89 69.64) rotate(-37.21)"/><path class="cls-2" d="M96.7,61.8c-1.08,4.51-4.14,7.8-7.86,8.07-3.89.28-7.88-1.89-9-5.09-1.91-5.43-1.75-11.45,3-16.69A10.37,10.37,0,0,1,90.13,45c11.36,0,21.17,13.43,20.56,30-.7,19.24-6.84,30.68-18.47,30.68-5.47,0-10.61-3.6-11.18-9.78-.38-4.09,1.18-7.25,4.35-10.41"/><path class="cls-2" d="M86.39,70.3s-3.24,4.35-2,7.09c2.55,5.66,10.9-.28,10.9-.28"/><path class="cls-2" d="M86.6,80.24s-2,3.77-1.21,5.24c3,5.66,17.15,1.34,17.15,1.34"/><ellipse class="cls-3" cx="48.96" cy="63.64" rx="3.72" ry="4.78" transform="translate(-31.33 64.15) rotate(-52.79)"/><ellipse class="cls-3" cx="48.96" cy="63.64" rx="3.72" ry="4.78" transform="translate(-31.33 64.15) rotate(-52.79)"/><path class="cls-2" d="M42.73,54.45c1.07,4.5,4.13,7.79,7.86,8.06s7.88-1.88,9-5.09c1.92-5.43,1.76-11.44-3-16.68a10.42,10.42,0,0,0-7.35-3.09c-11.35,0-21.16,13.44-20.56,30,.7,19.24,6.84,30.68,18.47,30.68,5.48,0,10.61-3.61,11.18-9.78.39-4.09-1.18-7.25-4.34-10.42"/><path class="cls-1" d="M33.2,67.65c-.55-15,7.72-27.41,17.81-29a9.54,9.54,0,0,0-1.73-.19c-11.05,0-20.59,13.08-20,29.18.68,18.72,6.65,29.85,18,29.85A11.66,11.66,0,0,0,49,97.35C39.1,96,33.84,85.15,33.2,67.65Z"/><path class="cls-2" d="M53.84,63s3.23,4.34,2,7.08c-2.55,5.66-10.9-.28-10.9-.28"/><path class="cls-2" d="M53.63,72.88s2,3.77,1.21,5.24c-3,5.67-17.16,1.35-17.16,1.35"/><path class="cls-2" d="M53.84,63s3.23,4.34,2,7.08c-2.55,5.66-10.9-.28-10.9-.28"/><path class="cls-2" d="M53.63,72.88s2,3.77,1.21,5.24c-3,5.67-17.16,1.35-17.16,1.35"/><path class="cls-4" d="M70.09,110.78l-2,.2a2.26,2.26,0,0,1-2.49-2s-4.58-41.07-5.37-55.74C60,49,59.61,33.49,59.61,33.49a2.28,2.28,0,0,1,2-2.49l2-.2a2.28,2.28,0,0,1,2.5,2s.38,15.1.6,19.22c.78,14.79,5.42,56.23,5.42,56.23A2.28,2.28,0,0,1,70.09,110.78Z"/><path class="cls-5" d="M74.93,111.6H73a3,3,0,0,1-3-3S68.38,67.67,68.63,54c.1-5.6,1.39-22.36,1.39-22.36a3,3,0,0,1,3-3h1.89a3,3,0,0,1,3,3S76.67,48.44,76.57,54C76.32,67.67,78,108.57,78,108.57A3,3,0,0,1,74.93,111.6Z"/><path class="cls-1" d="M85.28,86.89a10.17,10.17,0,0,0-3.41,6.62c-.28,4.62,1.5,7.45,3.55,9.06a10.73,10.73,0,0,0,4.88,2.11A13.2,13.2,0,0,1,85,94a13,13,0,0,1,1.86-5.88A5.88,5.88,0,0,1,85.28,86.89Z"/><path class="cls-1" d="M86.43,83a4.55,4.55,0,0,0-.33,1.92,4.58,4.58,0,0,0,3.34,2.28,7,7,0,0,1,.76-.83,12.3,12.3,0,0,1-.09-3.23A9.18,9.18,0,0,1,91,80.24c-.4.08-1.53.37-2.07.43a3.15,3.15,0,0,1-1.52-.09A12.91,12.91,0,0,0,86.43,83Z"/><path class="cls-1" d="M87.17,70.73a11,11,0,0,0-2.15,5,2.88,2.88,0,0,0,2.35,3.16,5,5,0,0,0,1.85,0,5.45,5.45,0,0,1-1.17-3.62c.08-2,2.12-4.64,2.12-4.64a8.52,8.52,0,0,1-1.57.23A9,9,0,0,1,87.17,70.73Z"/><path class="cls-1" d="M80,55.3c-1.2,4.7.53,9.51,1.63,10.75a8.56,8.56,0,0,0,5.47,2.84,12.17,12.17,0,0,1-4.21-11.72C84,48.76,89,46,89,46a9.36,9.36,0,0,0-4,1.44C83.07,48.66,80.94,51.15,80,55.3Z"/></g></g></svg>