<svg xmlns="http://www.w3.org/2000/svg" viewBox="0 0 140.18 140.18"><defs><style>.cls-1,.cls-3{fill:#ffab48;}.cls-2{fill:#ff8400;}.cls-2,.cls-3,.cls-7,.cls-8{stroke:#515151;stroke-width:1.5px;}.cls-2,.cls-3,.cls-8{stroke-miterlimit:10;}.cls-4,.cls-7,.cls-8{fill:none;}.cls-5{fill:#90d200;}.cls-6{fill:#565656;}.cls-7,.cls-8{stroke-linecap:round;}.cls-7{stroke-linejoin:round;}</style></defs><title>Asset 15</title><g id="Layer_2" data-name="Layer 2"><g id="Layer_1-2" data-name="Layer 1"><path class="cls-1" d="M70.09,3A67.09,67.09,0,1,1,3,70.09,67.09,67.09,0,0,1,70.09,3m0-3a70.09,70.09,0,1,0,70.09,70.09A70.17,70.17,0,0,0,70.09,0Z"/><path class="cls-2" d="M84,44.1h1.15a7.72,7.72,0,0,0-3.72-.77,2.19,2.19,0,0,1-2-1.49,19.4,19.4,0,0,0-1.19-2.77L80.29,37a4.37,4.37,0,1,0-6.18-6.18L71.89,33a9.12,9.12,0,0,0-8.39.89,2,2,0,0,1-2.71-.55,7,7,0,0,0-2.23-2.16c-1-.52-3,0-4.05.7-.6.41-.4,2.25-.24,3.4.22,1.57,1.16,3.51,1.19,4.85,3.17,2.09,7.09,5.9,5.25,11.22S49,64.48,40.79,66.48c-3.36,12.06-1,23,7.9,32.56,11.48,12.32,26.4,15.79,42.65,14.66,4.53-.31,7.16-3.15,7.24-7.66a82.88,82.88,0,0,0-.75-12.19h0C96,79.93,96.36,64.94,81.16,56.19a1.11,1.11,0,0,1,.36-2.07,10.57,10.57,0,0,0,4.3-1.28H84"/><path class="cls-1" d="M57.58,89.39c-7.44-8-10.29-16.94-9.08-26.69-2.35,1.28-6.26,2.48-6.81,4.8-2.64,11.17-1.48,21.23,7.61,30.63,10.27,10.61,21,15,40.75,14.88,4.54,0,7.77-3,7.32-7.6,0-.34,0-.69,0-1-15.84.91-28.54-2.93-39.78-15Z"/><path class="cls-3" d="M55.47,40.15a1.84,1.84,0,0,1-.22,1c-.93,1.38-3.79,2.14-5.75,2a11.79,11.79,0,0,0-1.45,0L40.69,35.8a2.09,2.09,0,0,0-3,0l-1.13,1.13a2.09,2.09,0,0,0,0,3l7.51,7.51c0,.34-.07.67-.07,1.06-.11,4.6-.23,9.52-1.83,13.73-.55,1.44-1,2.86-1.4,4.27,8.23-2,18.07-9.68,19.93-15.1s-2.09-9.13-5.25-11.23Z"/><rect class="cls-4" x="35.96" y="28.69" width="67.29" height="86.96"/><path class="cls-5" d="M94.22,52.84H84a4.37,4.37,0,1,1,0-8.74h10.2a4.37,4.37,0,1,1,0,8.74Z"/><path class="cls-6" d="M98.59,48.47a4.37,4.37,0,1,1-4.37-4.37,4.37,4.37,0,0,1,4.37,4.37Z"/><path class="cls-5" d="M100,68.54l-3-.69,2.08-2.23a2.1,2.1,0,0,0-.1-3l-1.17-1.1a2.12,2.12,0,0,0-3,.11l-4.37,4.67-.89-.21a30.09,30.09,0,0,1,3.19,6.74l5.89,1.37a2.12,2.12,0,0,0,2.54-1.59l.37-1.55A2.12,2.12,0,0,0,100,68.54Z"/><path class="cls-7" d="M69.34,58.7a25.07,25.07,0,0,0-1.89,21c3.37,9.44,18,16.76,18,16.76"/><path class="cls-7" d="M66.17,76.91a14.64,14.64,0,0,0-5.28,11,17.62,17.62,0,0,0,4.68,11.89"/><path class="cls-7" d="M66.17,69a9.73,9.73,0,0,1,8.57-1.22c6.22,2.3,11.15,9.35,11.15,9.35"/><polyline class="cls-8" points="81.15 79.12 81.52 72.24 87.09 68.78"/><polyline class="cls-8" points="75.29 97.9 75.06 89.51 83.78 89.39"/><polyline class="cls-8" points="85.41 101.08 85.41 96.44 89.97 93.47"/><polyline class="cls-8" points="65.14 104.11 65.57 99.79 69.41 99.5"/></g></g></svg>