<svg xmlns="http://www.w3.org/2000/svg" viewBox="0 0 140.18 140.18"><defs><style>.cls-1{fill:#ffab48;}.cls-2{fill:#90d200;stroke-linecap:round;stroke-linejoin:round;}.cls-2,.cls-4{stroke:#515151;stroke-width:1.5px;}.cls-3{fill:#ff8400;}.cls-4{fill:none;stroke-miterlimit:10;}</style></defs><title>Asset 13</title><g id="Layer_2" data-name="Layer 2"><g id="Layer_1-2" data-name="Layer 1"><path class="cls-1" d="M70.09,3A67.09,67.09,0,1,1,3,70.09,67.09,67.09,0,0,1,70.09,3m0-3a70.09,70.09,0,1,0,70.09,70.09A70.17,70.17,0,0,0,70.09,0Z"/><path class="cls-2" d="M74.59,63.88h9c7.52-4.13,10.34-11.59,11.32-15.42A2.26,2.26,0,0,0,93,45.65C81.35,44,75.47,47.23,71.35,53.77c.29.69.57,1.38.84,2.09a22.86,22.86,0,0,1,1.24,5.49c5.64-3.2,10.52-7.26,12.26-8.42a92.38,92.38,0,0,1-11.1,11Z"/><path class="cls-2" d="M27.64,37.9c1,5.41,5,19.86,19.71,26H65C59.39,53.74,49.33,48.76,44.84,46c3.42.63,14,4.26,23.67,14.33.75.78,2.26,2.42,2.31,2.4C69.72,46.87,55,34,39.48,34a43.32,43.32,0,0,0-10.15,1.28,2.26,2.26,0,0,0-1.69,2.61Z"/><path class="cls-3" d="M111.21,71.76A2.18,2.18,0,0,0,109,69.58H41.77a2.18,2.18,0,0,0-2.19,2.18V72A31.78,31.78,0,0,0,71.37,103.8h8A31.78,31.78,0,0,0,111.2,72v-.26Z"/><path class="cls-1" d="M49.84,71.63a1.88,1.88,0,0,0-1.65-2l-6.36.09a1.88,1.88,0,0,0-1.65,2V72c0,16.5,10.76,29.87,24,29.87,0,0-14.38-13.47-14.38-30v-.24Z"/><path class="cls-4" d="M111.21,71.76A2.18,2.18,0,0,0,109,69.58H41.77a2.18,2.18,0,0,0-2.19,2.18V72A31.78,31.78,0,0,0,71.37,103.8h8A31.78,31.78,0,0,0,111.2,72v-.26Z"/></g></g></svg>